<?xml version="1.0" encoding="UTF-8"?>
<!DOCTYPE svg PUBLIC "-//W3C//DTD SVG 1.1//EN" "http://www.w3.org/Graphics/SVG/1.1/DTD/svg11.dtd">
<!-- Creator: CorelDRAW -->
<svg xmlns="http://www.w3.org/2000/svg" xml:space="preserve" width="1165px" height="637px" style="shape-rendering:geometricPrecision; text-rendering:geometricPrecision; image-rendering:optimizeQuality; fill-rule:evenodd; clip-rule:evenodd"
viewBox="0 0 5671.82 3101.85"
 xmlns:xlink="http://www.w3.org/1999/xlink">
 <defs>
  <style type="text/css">
   <![CDATA[
    .str0 {stroke:#C2C1C1;stroke-width:4.38263}
    .str1 {stroke:white;stroke-width:4.38263}
    .fil0 {fill:none}
    .fil4 {fill:#F8C300}
    .fil3 {fill:white}
    .fil2 {fill:#0093DD;fill-rule:nonzero}
    .fil1 {fill:#1F1A17;fill-rule:nonzero}
   ]]>
  </style>
 </defs>
 <g id="Warstwa_x0020_1">
  <metadata id="CorelCorpID_0Corel-Layer"/>
  <rect class="fil0" y="1293.49" width="17.289" height="1808.36"/>
  <g id="_171142520">
   <path id="_92666864" class="fil0 str0" d="M5400.91 1252.41c147.802,0 268.721,-106.891 268.721,-237.542l0 -775.128c0,-130.656 -120.919,-237.548 -268.721,-237.548"/>
   <path id="_92666792" class="fil0 str0" d="M314.75 1252.41c-147.802,0 -268.721,-106.891 -268.721,-237.542l0 -775.128c0,-130.656 120.919,-237.548 268.721,-237.548"/>
   <path id="_92666648" class="fil1" d="M2742.55 1190.28l95.7622 0 0 -110.607 -95.7622 0 0 110.607zm-28.9415 -101.399c0,-16.1157 2.11079,-27.0722 6.32088,-32.933 4.22159,-5.86651 12.3657,-8.79402 24.5358,-8.79402l91.926 0c12.2679,0 20.4638,2.92751 24.6279,8.79402 4.16983,5.86076 6.22886,16.8173 6.22886,32.933l0 93.4444c0,16.1904 -2.10504,27.216 -6.36689,33.0825 -4.2561,5.85501 -12.406,8.78827 -24.4898,8.78827l-91.926 0c-12.1701,0 -20.3142,-2.93326 -24.5358,-8.78827 -4.21009,-5.86651 -6.32088,-16.8921 -6.32088,-33.0825l0 -93.4444zm338.567 101.399l95.7565 0 0 -110.607 -95.7565 0 0 110.607zm-28.9472 -101.399c0,-16.1157 2.11655,-27.0722 6.32663,-32.933 4.21584,-5.86651 12.3599,-8.79402 24.5358,-8.79402l91.926 0c12.2622,0 20.4638,2.92751 24.6279,8.79402 4.16983,5.86076 6.22886,16.8173 6.22886,32.933l0 93.4444c0,16.1904 -2.10504,27.216 -6.37264,33.0825 -4.2561,5.85501 -12.406,8.78827 -24.4841,8.78827l-91.926 0c-12.1759,0 -20.32,-2.93326 -24.5358,-8.78827 -4.21009,-5.86651 -6.32663,-16.8921 -6.32663,-33.0825l0 -93.4444zm313.513 -10.0421l-81.8091 0 0 37.4019 77.4092 0c12.1759,0 20.3718,2.85849 24.5358,8.65598 4.21584,5.78599 6.32088,16.8173 6.32088,33.002l0 24.3575c0,16.2594 -2.15106,27.285 -6.45892,33.1516 -4.26185,5.85501 -12.4117,8.78827 -24.3978,8.78827l-77.1274 0c-12.2679,0 -20.5558,-2.93326 -24.9097,-8.78827 -4.35387,-5.86651 -6.50493,-16.8921 -6.50493,-33.1516l0 -4.88876 25.7954 -7.1836 0 20.8664 87.3823 0 0 -40.4732 -76.9894 0c-12.1241,0 -20.3603,-2.93326 -24.6739,-8.86304 -4.30786,-5.93553 -6.46467,-16.9611 -6.46467,-33.0825l0 -19.8139c0,-15.9144 2.15681,-26.8652 6.46467,-32.8007 4.31361,-5.93553 12.5497,-8.86304 24.6739,-8.86304l70.5707 0c11.9918,0 20.1877,2.85849 24.6336,8.5122 4.4459,5.65371 6.65447,15.6383 6.65447,29.9422l0 4.25035 -25.1052 7.96005 0 -18.9799zm102.601 111.441l95.7565 0 0 -110.607 -95.7565 0 0 110.607zm-28.9415 -101.399c0,-16.1157 2.11079,-27.0722 6.32088,-32.933 4.21584,-5.86651 12.3657,-8.79402 24.5416,-8.79402l91.9202 0c12.2737,0 20.4638,2.92751 24.6336,8.79402 4.16407,5.86076 6.22311,16.8173 6.22311,32.933l0 93.4444c0,16.1904 -2.10504,27.216 -6.36689,33.0825 -4.26185,5.85501 -12.4117,8.78827 -24.4898,8.78827l-91.9202 0c-12.1759,0 -20.3257,-2.93326 -24.5416,-8.78827 -4.21009,-5.86651 -6.32088,-16.8921 -6.32088,-33.0825l0 -93.4444zm203.7 135.315l0 -177.042 106.719 0c9.97307,0 17.1394,2.72045 21.4933,8.09234 4.39989,5.37764 6.6027,14.1026 6.6027,26.244l0 21.2805c0,8.02332 -1.7312,14.6548 -5.19934,19.8196 -3.51416,5.23385 -8.51795,8.65023 -15.1207,10.4677 6.69473,1.60466 11.8941,5.37189 15.5923,11.3074 3.6982,5.92978 5.57319,13.3952 5.57319,22.402l0 22.6781c0,11.5835 -3.04829,20.2337 -9.17937,26.0255 -6.13683,5.79174 -15.3622,8.725 -27.7222,8.725l-98.7587 0zm93.4156 -148.222l-64.894 0 0 41.9398 64.894 0c5.01529,0 8.43168,-0.977752 10.2549,-2.86424 1.82897,-1.88074 2.76646,-5.15908 2.76646,-9.83504l0 -16.7483c0,-4.67596 -0.89148,-7.88529 -2.66294,-9.70275 -1.78871,-1.88074 -5.25111,-2.78947 -10.3584,-2.78947zm0 71.1804l-64.894 0 0 45.1492 64.894 0c5.48116,0 9.17937,-1.18481 11.1464,-3.4854 1.96701,-2.30635 2.95626,-6.35539 2.95626,-12.2104l0 -13.5447c0,-5.86076 -0.989255,-9.97883 -2.95626,-12.3542 -1.96701,-2.36386 -5.66521,-3.55442 -11.1464,-3.55442zm91.2243 77.0411l0 -177.042 28.7977 0 0 177.042 -28.7977 0zm81.7631 0l0 -177.042 127.464 0 0 31.2651 -98.2469 0 0 38.5867 57.2273 0 0 30.5001 -57.2273 0 0 43.5445 99.7422 0 0 33.1458 -128.96 0zm272.724 0l0 -19.1927 87.0947 -126.165 -78.295 0 0 -31.6849 125.216 0 0 17.588 -88.7397 126.722 88.7397 0 0 32.7317 -134.015 0zm299.319 0l0 -216.124 34.043 0 0 90.166 80.4058 -90.166 48.8416 0 -96.044 101.819 107.846 114.305 -54.1847 0 -86.8647 -95.0433 0 95.0433 -34.043 0zm332.194 -178.716l-75.9081 0 0 60.1548 75.9081 0c5.84926,0 9.83504,-1.25382 11.9861,-3.76722 2.15106,-2.5134 3.23233,-6.9823 3.23233,-13.401l0 -26.0255c0,-6.28637 -1.08128,-10.6805 -3.23233,-13.1882 -2.15106,-2.5134 -6.13683,-3.77297 -11.9861,-3.77297zm-109.111 178.716l0 -216.124 124.048 0c11.5145,0 19.8599,3.2841 25.0535,9.91556 5.15333,6.63146 7.72424,17.3005 7.72424,31.9552l0 50.8029c0,14.5858 -2.57091,25.1973 -7.72424,31.823 -5.19359,6.70048 -13.539,10.0478 -25.0535,10.0478l-18.9166 0 66.9185 81.5791 -48.4217 0 -58.4408 -81.5791 -31.984 0 0 81.5791 -33.2033 0zm350.927 -178.296l-94.9167 0 0 46.403 90.3788 0c14.1832,0 23.7824,3.62919 28.7517,10.8185 5.00954,7.25262 7.49418,20.6536 7.49418,40.3352l0 29.6547c0,19.6126 -2.48464,33.0078 -7.49418,40.2719 -4.96928,7.1836 -14.5685,10.8128 -28.7517,10.8128l-89.5391 0c-14.1889,0 -23.7881,-3.62919 -28.7517,-10.8128 -5.00954,-7.26412 -7.48843,-20.6593 -7.48843,-40.2719l0 -5.92978 29.7812 -9.21388 0 25.5423 102.451 0 0 -49.2672 -90.3673 0c-14.1026,0 -23.6098,-3.62919 -28.5676,-10.8128 -4.91752,-7.25837 -7.40216,-20.6593 -7.40216,-40.3352l0 -23.8687c0,-19.6758 2.48464,-33.0768 7.40216,-40.3352 4.95778,-7.18936 14.465,-10.8185 28.5676,-10.8185l82.275 0c13.6195,0 23.0347,3.49115 28.188,10.4044 5.19934,6.97655 7.77026,19.325 7.77026,37.0511l0 4.4689 -29.7812 10.462 0 -24.5588z"/>
   <path id="_92666576" class="fil2" d="M1738.75 340.821l-372.259 0 -65.2276 197.955 372.259 0c28.7057,0 49.5893,-4.12957 62.8752,-12.4002 13.2859,-8.26488 23.4143,-22.9657 30.3793,-44.0909l28.2225 -85.6569c6.80976,-20.6766 6.29212,-35.1416 -1.5414,-43.4065 -7.84502,-8.26488 -25.9967,-12.4002 -54.7081,-12.4002zm-728.874 588.135l234.35 -711.229 608.34 0c56.4968,0 93.8182,10.7898 112.125,32.6109 18.0712,21.8096 19.1237,56.9512 3.23233,105.177l-55.0877 167.184c-15.8166,47.9961 -39.9498,82.9019 -72.3939,104.723 -32.7547,22.0454 -77.2654,33.071 -133.762,33.071l-92.7772 0 239.705 268.462 -237.456 0 -198.139 -268.462 -156.854 0 -88.4578 268.462 -162.825 0zm730.605 0l537.827 -582.625 136.644 0 159.161 582.625 -159.374 0 -31.3456 -127.919 -385.349 0 -115.639 127.919 -141.924 0zm352.992 -234.246l267.087 0 -55.7434 -242.741 -211.344 242.741zm441.225 234.246l191.979 -582.625 524.748 0c48.4563,0 80.4115,8.95506 95.9405,26.6351 15.5348,17.6858 16.5643,46.6273 3.39913,86.5828l-42.4517 128.833c-13.1651,39.9613 -33.4966,68.8913 -60.9082,86.5771 -27.1815,17.6801 -65.0378,26.6409 -113.04,26.6409l-384.895 0 -74.9131 227.356 -139.859 0zm623.265 -482.268l-324.505 0 -50.9179 154.554 324.493 0c24.5703,0 42.7795,-3.6752 54.3055,-10.7898 11.5317,-7.12034 20.1417,-19.2962 25.7379,-36.2861l19.9059 -60.4021c5.59619,-16.9956 5.01529,-29.16 -1.82897,-36.2804 -6.83852,-7.12034 -22.6206,-10.7955 -47.1909,-10.7955zm222.197 370.654l469.637 0 119.936 -363.994 -469.632 0 -119.941 363.994zm-31.9725 -333.684c17.4788,-53.0459 39.691,-89.102 66.7172,-108.392 27.0262,-19.2905 70.1566,-28.9357 129.869,-28.9357l450.807 0c60.1663,0 97.1771,9.64524 111.257,28.9357 14.0854,19.2905 12.3082,55.3465 -5.17058,108.392l-101.318 307.503c-17.5535,53.276 -39.8463,89.5621 -67.1026,108.858 -27.2505,19.2905 -70.3924,28.9357 -129.644,28.9357l-450.801 0c-59.7119,0 -96.4869,-9.64524 -110.802,-28.9357 -14.3097,-19.2962 -12.6935,-55.5823 4.86576,-108.858l101.324 -307.503zm1290.96 -36.9705l-324.493 0 -53.1207 161.214 324.493 0c24.5703,0 42.7795,-3.6752 54.3055,-10.7898 11.5317,-7.12034 20.1417,-19.2962 25.7379,-36.2861l22.0972 -67.0623c5.59619,-16.9956 5.01529,-29.16 -1.82897,-36.2804 -6.83276,-7.12034 -22.6206,-10.7955 -47.1909,-10.7955zm-623.26 482.268l191.973 -582.625 524.748 0c48.0019,0 79.9514,8.95506 95.4861,26.6351 15.7591,17.6858 17.0244,46.6273 3.85349,86.5828l-45.0974 136.868c-13.0214,39.5069 -33.1918,67.9768 -60.6091,85.6626 -27.1125,17.4558 -64.8825,26.1808 -112.884,26.1808l-79.9226 0 204.471 220.696 -203.93 0 -171.624 -220.696 -133.889 0 -72.716 220.696 -139.859 0zm1166.56 -478.368l-157.619 478.368 -141.918 0 157.619 -478.368 -281.322 0 34.3536 -104.257 705.253 0 -34.3536 104.257 -282.013 0z"/>
   <path id="_92666504" class="fil3 str1" d="M858.668 388.921c-5.33163,28.5504 19.2732,50.1242 44.0851,53.6959 270.268,38.8973 350.099,-64.0773 136.506,-117.693 -45.3792,-11.3822 -169.042,2.36386 -180.591,63.9968zm-256.51 123.657l7.29863 -18.7843c-87.5664,-6.66022 -275.255,-4.29061 -337.296,-41.4279 -9.20238,-5.51567 -13.4297,-9.94432 -14.3615,-12.5497 -0.948995,-2.61693 -0.281823,-7.98881 2.00152,-16.1329 6.89028,-7.48843 13.723,-11.7215 20.4983,-12.6935 113.339,-26.7962 219.816,-29.8847 356.908,-26.5776 3.4739,0.396852 6.87302,-0.0977752 10.3412,-1.7542 3.00803,-1.9555 6.36114,-4.51492 9.78903,-8.25913 291.215,-494.984 1200.63,231.653 319.098,184.795 -33.5772,-10.7093 -107.915,-14.1429 -142.809,-5.12457 -2.46164,1.02376 -4.4689,2.3236 -5.37189,3.85925 -3.58893,6.11383 -5.9873,13.3722 -6.71773,22.0052 -32.7432,330.181 609.376,198.817 764.821,290.272 11.0659,6.50493 17.7261,12.0666 20.8089,16.3572 2.88725,4.56668 2.57667,9.33466 -0.655669,14.8331 -2.16256,3.69245 -5.809,7.01681 -11.3592,9.82354 -257.684,130.455 -1060.34,50.4003 -992.994,-398.641z"/>
   <path id="_92666432" class="fil4 str1" d="M813.64 379.103c-5.33163,28.5561 19.2675,50.1242 44.0851,53.7016 270.262,38.8973 350.099,-64.083 136.506,-117.693 -45.3792,-11.3879 -169.042,2.35811 -180.591,63.991zm-256.51 123.657l7.29863 -18.7843c-87.5664,-6.66022 -275.255,-4.29061 -337.296,-41.4222 -9.20238,-5.51567 -13.4297,-9.95007 -14.3615,-12.5497 -0.948995,-2.62268 -0.281823,-7.99456 2.00152,-16.1387 6.89028,-7.48268 13.723,-11.7215 20.4983,-12.6878 113.339,-26.7962 219.816,-29.8905 356.908,-26.5834 3.4739,0.396852 6.87302,-0.0920238 10.3412,-1.74845 3.00803,-1.96126 6.35539,-4.52067 9.78903,-8.26488 291.215,-494.979 1200.63,231.658 319.092,184.795 -33.5714,-10.7035 -107.915,-14.1371 -142.804,-5.11882 -2.46164,1.01801 -4.4689,2.3236 -5.37189,3.85349 -3.58893,6.11958 -5.9873,13.378 -6.72349,22.0109 -32.7374,330.175 609.381,198.817 764.827,290.272 11.0659,6.49918 17.7261,12.0666 20.8089,16.3515 2.88149,4.56668 2.57667,9.34041 -0.655669,14.8388 -2.16256,3.69245 -5.809,7.01106 -11.3592,9.82354 -257.684,130.455 -1060.34,50.3945 -992.994,-398.647z"/>
  </g>
 </g>
</svg>
