<?xml version="1.0" encoding="UTF-8"?>
<!DOCTYPE svg PUBLIC "-//W3C//DTD SVG 1.1//EN" "http://www.w3.org/Graphics/SVG/1.1/DTD/svg11.dtd">
<!-- Creator: CorelDRAW -->
<svg xmlns="http://www.w3.org/2000/svg" xml:space="preserve" width="1166px" height="329px" style="shape-rendering:geometricPrecision; text-rendering:geometricPrecision; image-rendering:optimizeQuality; fill-rule:evenodd; clip-rule:evenodd"
viewBox="0 0 5710.97 1612"
 xmlns:xlink="http://www.w3.org/1999/xlink">
 <defs>
  <style type="text/css">
   <![CDATA[
    .str0 {stroke:#C2C1C1;stroke-width:4.40803}
    .str1 {stroke:#DA251D;stroke-width:4.40803}
    .fil0 {fill:none}
    .fil2 {fill:#DA251D}
    .fil3 {fill:white}
    .fil4 {fill:#1F1A17;fill-rule:nonzero}
    .fil1 {fill:#9E0505;fill-rule:nonzero}
   ]]>
  </style>
 </defs>
 <g id="Warstwa_x0020_1">
  <metadata id="CorelCorpID_0Corel-Layer"/>
  <g id="_170479688">
   <path id="_104704920" class="fil0 str0" d="M2343.11 1609.79l-1462.44 0c-156.653,0 -284.816,-113.296 -284.816,-251.767l0 -821.549"/>
   <path id="_104704776" class="fil1" d="M1725.7 643.613l-394.565 0 -69.1286 209.815 394.559 0c30.4224,0 52.5551,-4.37911 66.6411,-13.1489 14.086,-8.75822 24.8169,-24.3367 32.1925,-46.7298l29.9133 -90.7928c7.21946,-21.9071 6.67568,-37.2369 -1.6371,-46.0009 -8.307,-8.764 -27.5531,-13.1431 -57.9755,-13.1431zm-772.534 623.361l248.383 -753.832 644.782 0c59.8787,0 99.4353,11.4424 118.832,34.5643 19.1593,23.1277 20.2758,60.3704 3.43618,111.485l-58.392 177.195c-16.7586,50.8717 -42.3391,87.8714 -76.7356,110.993 -34.7147,23.3707 -81.8899,35.0502 -141.769,35.0502l-98.3362 0 254.069 284.544 -251.68 0 -210.012 -284.544 -166.244 0 -93.7604 284.544 -172.573 0zm774.362 0l570.042 -617.518 144.829 0 168.697 617.518 -168.928 0 -33.2164 -135.573 -408.431 0 -122.563 135.573 -150.428 0zm374.139 -248.273l283.08 0 -59.0804 -257.28 -224 257.28zm467.651 248.273l203.475 -617.518 556.182 0c51.3576,0 85.222,9.48711 101.686,28.2299 16.4636,18.7428 17.5569,49.4139 3.59816,91.7646l-44.9943 136.551c-13.953,42.3565 -35.4957,73.0218 -64.5528,91.7646 -28.8142,18.7428 -68.9377,28.2357 -119.809,28.2357l-407.951 0 -79.3967 240.972 -148.236 0zm660.592 -511.153l-343.931 0 -53.9782 163.809 343.931 0c26.049,0 45.3414,-3.89318 57.5647,-11.4366 12.2233,-7.54341 21.3402,-20.4436 27.2754,-38.4575l21.0915 -64.0148c5.93523,-18.0139 5.32203,-30.9141 -1.93213,-38.4575 -7.24838,-7.54919 -23.9781,-11.4424 -50.0213,-11.4424zm235.512 392.859l497.761 0 127.121 -385.801 -497.766 0 -127.116 385.801zm-33.8933 -353.672c18.5288,-56.2227 42.073,-94.4372 70.7136,-114.887 28.6464,-20.4436 74.3639,-30.6653 137.65,-30.6653l477.809 0c63.7719,0 102.999,10.2218 117.924,30.6653 14.9248,20.4493 13.0448,58.6639 -5.48401,114.887l-107.389 325.923c-18.604,56.4714 -42.235,94.9289 -71.1186,115.372 -28.8836,20.4493 -74.6068,30.6711 -137.407,30.6711l-477.803 0c-63.2859,0 -102.27,-10.2218 -117.438,-30.6711 -15.1736,-20.4436 -13.4555,-58.901 5.15428,-115.372l107.389 -325.923zm1368.28 -39.1864l-343.931 0 -56.2979 170.872 343.931 0c26.0433,0 45.3414,-3.89318 57.559,-11.4424 12.2233,-7.54341 21.3402,-20.4436 27.2812,-38.4575l23.417 -71.0723c5.93523,-18.0139 5.31625,-30.9141 -1.93213,-38.4575 -7.24838,-7.54919 -23.9781,-11.4424 -50.0271,-11.4424zm-660.586 511.153l203.469 -617.518 556.182 0c50.8717,0 84.7418,9.48711 101.205,28.2299 16.7008,18.7428 18.0371,49.4139 4.08408,91.7646l-47.8 145.072c-13.7968,41.8647 -35.1833,72.0499 -64.2404,90.7928 -28.7274,18.4941 -68.7757,27.744 -119.647,27.744l-84.7013 0 216.717 233.915 -216.144 0 -181.909 -233.915 -141.907 0 -77.0769 233.915 -148.23 0zm1236.43 -507.016l-167.06 507.016 -150.423 0 167.06 -507.016 -298.173 0 36.4154 -110.502 747.497 0 -36.4154 110.502 -298.902 0z"/>
   <path id="_104704704" class="fil2 str1" d="M659.504 419.776c17.0305,35.5477 61.2612,39.464 91.3018,23.5037 327.178,-173.892 332.13,-350.63 55.2393,-238.259 -58.8258,23.8855 -183.263,138.003 -146.541,214.756zm-181.898 340.917l-7.05748 -26.4193c-101.24,62.8463 -304.918,215.785 -402.624,224.81 -14.491,1.33051 -22.6707,-0.133051 -25.7772,-2.23873 -3.14116,-2.10567 -6.71618,-8.52683 -10.7366,-19.275 1.55612,-13.7216 5.64598,-23.8335 12.287,-30.324 102.675,-120.133 216.827,-208.815 369.627,-315.012 4.12458,-2.34285 7.45663,-5.60549 9.92675,-10.1986 1.72388,-4.55265 3.34363,-10.0424 4.10722,-16.8917 -77.5339,-775.426 1500.61,-708.022 497.529,-53.203 -45.353,15.1736 -129.528,70.9624 -160.517,108.784 -1.88007,3.08909 -3.03703,6.12612 -2.79407,8.52683 0.966065,9.57966 4.1535,19.4486 10.2623,29.491 228.628,387.866 826.709,-270.371 1070.23,-294.719 17.3255,-1.74123 29.0745,-0.983419 35.889,1.24374 6.8203,2.68994 10.3028,8.16238 11.1647,16.7702 0.590052,5.78482 -0.740457,12.339 -4.57001,19.8651 -177.739,349.299 -1121.01,904.567 -1406.95,358.792z"/>
   <path id="_104704632" class="fil3 str1" d="M630.326 456.96c17.0363,35.5477 61.2612,39.464 91.3018,23.5037 327.178,-173.892 332.13,-350.63 55.2393,-238.259 -58.8258,23.8855 -183.263,137.997 -146.541,214.756zm-181.898 340.911l-7.05748 -26.4193c-101.24,62.8521 -304.912,215.791 -402.618,224.815 -14.4968,1.33051 -22.6765,-0.138836 -25.7829,-2.24451 -3.14116,-2.10567 -6.71039,-8.52104 -10.7308,-19.275 1.55033,-13.7158 5.6402,-23.8277 12.287,-30.3182 102.675,-120.139 216.821,-208.815 369.627,-315.012 4.12458,-2.34285 7.45085,-5.60549 9.92097,-10.1986 1.72388,-4.55265 3.34941,-10.0424 4.10722,-16.8917 -77.5339,-775.426 1500.61,-708.022 497.529,-53.203 -45.3472,15.1678 -129.522,70.9566 -160.517,108.784 -1.88007,3.08909 -3.03703,6.12612 -2.79407,8.52683 0.966065,9.57388 4.15929,19.4486 10.2681,29.491 228.628,387.866 826.709,-270.371 1070.23,-294.719 17.3255,-1.74123 29.0745,-0.983419 35.8948,1.24374 6.81452,2.68994 10.3028,8.16238 11.1647,16.7702 0.584267,5.77904 -0.746242,12.339 -4.57579,19.8651 -177.739,349.299 -1121.01,904.567 -1406.95,358.786z"/>
   <path id="_104704560" class="fil4" d="M2774.54 1421.54c0,-19.6568 7.93677,-34.2346 23.8682,-43.687 13.253,-7.85579 29.4332,-11.8126 48.5462,-11.8126 21.2419,0 38.6137,4.77826 52.0634,14.3695 13.5018,9.55652 20.2006,22.7633 20.2006,39.6318 0,13.6869 -2.97918,24.4351 -8.93176,32.2504 -5.95837,7.85 -14.6414,13.9241 -26.0086,18.2627 -11.4192,4.33283 -23.8219,6.48478 -37.3237,6.48478 -21.5947,0 -39.0649,-4.74355 -52.4163,-14.3001 -13.3514,-9.52181 -19.9981,-23.2434 -19.9981,-41.1995zm26.8994 0c0,13.6175 4.31548,23.793 12.9522,30.5496 8.63674,6.79138 19.5064,10.1697 32.5628,10.1697 13.0043,0 23.8219,-3.41304 32.4586,-10.2044 8.59046,-6.79138 12.9059,-17.1693 12.9059,-31.0934 0,-13.1431 -4.31548,-23.1104 -13.0043,-29.867 -8.68302,-6.75667 -19.4544,-10.135 -32.3603,-10.135 -13.0563,0 -23.926,3.37834 -32.5628,10.1003 -8.63674,6.72775 -12.9522,16.8975 -12.9522,30.4802zm231.242 93.7951l0 -146.871 23.8277 0 0 13.791c5.60549,-5.39145 11.963,-9.45818 19.0552,-12.1539 7.0517,-2.69573 15.6364,-4.06094 25.7135,-4.06094 13.201,0 24.8169,2.35442 34.8883,6.99963 10.1292,4.67414 17.7247,11.263 22.8385,19.7609 5.16006,8.4979 7.74009,17.8172 7.74009,27.9523 0,10.8581 -2.82878,20.6518 -8.5384,29.358 -5.65755,8.70037 -13.8951,15.3587 -24.7128,19.9981 -10.8234,4.6105 -22.1906,6.93022 -34.1015,6.93022 -8.73508,0 -16.5272,-1.26109 -23.4748,-3.78906 -6.94757,-2.52218 -12.6109,-5.73276 -17.0768,-9.59123l0 51.6758 -26.159 0zm23.6773 -93.1819c0,13.6522 4.02045,23.7583 12.0614,30.3125 8.0409,6.51949 17.8172,9.7937 29.2365,9.7937 11.6101,0 21.589,-3.37834 29.8786,-10.1697 8.28965,-6.75667 12.4547,-17.2388 12.4547,-31.4347 0,-13.5538 -4.06673,-23.6541 -12.1597,-30.4166 -8.08718,-6.72196 -17.7652,-10.1003 -28.982,-10.1003 -11.1705,0 -21.051,3.5808 -29.6356,10.7482 -8.58467,7.17318 -12.8539,17.6148 -12.8539,31.267zm132.177 -0.613191c0,-19.6568 7.93677,-34.2346 23.874,-43.687 13.253,-7.85579 29.4332,-11.8126 48.5404,-11.8126 21.2419,0 38.6137,4.77826 52.0692,14.3695 13.496,9.55652 20.2006,22.7633 20.2006,39.6318 0,13.6869 -2.97918,24.4351 -8.93755,32.2504 -5.95258,7.85 -14.6414,13.9241 -26.0028,18.2627 -11.4192,4.33283 -23.8277,6.48478 -37.3294,6.48478 -21.589,0 -39.0649,-4.74355 -52.4105,-14.3001 -13.3514,-9.52181 -20.0039,-23.2434 -20.0039,-41.1995zm26.8994 0c0,13.6175 4.31548,23.793 12.9522,30.5496 8.64252,6.79138 19.5122,10.1697 32.5628,10.1697 13.0043,0 23.8219,-3.41304 32.4586,-10.2044 8.59046,-6.79138 12.9059,-17.1693 12.9059,-31.0934 0,-13.1431 -4.31548,-23.1104 -13.0043,-29.867 -8.68302,-6.75667 -19.4544,-10.135 -32.3603,-10.135 -13.0506,0 -23.9202,3.37834 -32.5628,10.1003 -8.63674,6.72775 -12.9522,16.8975 -12.9522,30.4802zm248.666 53.1104l0 -13.415c-9.77635,10.5457 -24.169,15.8041 -43.1779,15.8041 -12.3101,0 -23.631,-2.31971 -33.9511,-6.99963 -10.3259,-4.63943 -18.3147,-11.1589 -24.0244,-19.5527 -5.65755,-8.36485 -8.48633,-17.9561 -8.48633,-28.8431 0,-10.5804 2.58003,-20.2064 7.69381,-28.8431 5.16006,-8.63674 12.8539,-15.2546 23.1277,-19.8304 10.2738,-4.6105 21.7914,-6.93022 34.4949,-6.93022 9.28464,0 17.5743,1.36522 24.8169,4.06094 7.30044,2.69573 13.2067,6.2129 17.771,10.5457l0 -52.5956 26.0086 0 0 146.599 -24.2731 0zm-82.7403 -53.0063c0,13.6175 4.17086,23.7872 12.5126,30.5149 8.33593,6.72196 18.1643,10.1003 29.5315,10.1003 11.4135,0 21.1435,-3.2395 29.1324,-9.66065 7.99462,-6.41537 12.0093,-16.2438 12.0093,-29.4563 0,-14.5373 -4.06673,-25.1871 -12.206,-31.9785 -8.13924,-6.82609 -18.1643,-10.2044 -30.1273,-10.2044 -11.6159,0 -21.346,3.27421 -29.1381,9.7937 -7.79215,6.51949 -11.7143,16.828 -11.7143,30.8909zm148.207 53.0063l0 -106.186 23.3822 0 0 14.8843c4.86503,-5.18898 11.3151,-9.38876 19.356,-12.5299 8.0409,-3.17587 17.2214,-4.77826 27.4953,-4.77826 11.4192,0 20.7964,1.6371 28.0969,4.9171 7.34672,3.27421 12.501,7.81529 15.4802,13.6869 12.2638,-12.3911 28.1432,-18.604 47.7016,-18.604 15.3356,0 27.1019,2.9329 35.3395,8.77557 8.23758,5.8311 12.3564,14.8091 12.3564,26.9283l0 72.9061 -26.0086 0 0 -66.9014c0,-7.2021 -0.838799,-12.3911 -2.52797,-15.5612 -1.74123,-3.14116 -4.81876,-5.70383 -9.23257,-7.64753 -4.46588,-1.90899 -9.73007,-2.90398 -15.7347,-2.90398 -10.8697,0 -19.8535,2.49326 -27.0498,7.47977 -7.15004,4.94602 -10.7713,12.9001 -10.7713,23.8219l0 61.7125 -26.1532 0 0 -68.984c0,-8.01776 -2.14038,-14.0282 -6.40958,-18.0197 -4.26341,-3.99153 -11.2168,-6.01043 -20.9411,-6.01043 -7.34672,0 -14.1497,1.33051 -20.4031,4.03202 -6.25339,2.66102 -10.8176,6.5542 -13.6001,11.6738 -2.82299,5.15428 -4.21713,12.5588 -4.21713,22.2195l0 55.0888 -26.159 0zm248.175 -125.883l0 -20.7154 26.2052 0 0 20.7154 -26.2052 0zm0 125.883l0 -106.186 26.2052 0 0 106.186 -26.2052 0zm56.2805 -53.1104c0,-19.6568 7.94256,-34.2346 23.874,-43.687 13.253,-7.85579 29.4332,-11.8126 48.5462,-11.8126 21.2419,0 38.6137,4.77826 52.0634,14.3695 13.5018,9.55652 20.2006,22.7633 20.2006,39.6318 0,13.6869 -2.97918,24.4351 -8.93176,32.2504 -5.95837,7.85 -14.6414,13.9241 -26.0086,18.2627 -11.4192,4.33283 -23.8277,6.48478 -37.3237,6.48478 -21.5947,0 -39.0649,-4.74355 -52.4163,-14.3001 -13.3514,-9.52181 -20.0039,-23.2434 -20.0039,-41.1995zm26.9052 0c0,13.6175 4.31548,23.793 12.9522,30.5496 8.63674,6.79138 19.5064,10.1697 32.5628,10.1697 13.0043,0 23.8219,-3.41304 32.4586,-10.2044 8.58467,-6.79138 12.9059,-17.1693 12.9059,-31.0934 0,-13.1431 -4.32126,-23.1104 -13.0043,-29.867 -8.6888,-6.75667 -19.4601,-10.135 -32.3603,-10.135 -13.0563,0 -23.926,3.37834 -32.5628,10.1003 -8.63674,6.72775 -12.9522,16.8975 -12.9522,30.4802zm205.633 36.9997l3.7717 15.9025c-7.34672,1.05862 -13.9472,1.60818 -19.7552,1.60818 -9.5276,0 -16.8743,-1.02391 -22.1385,-3.10645 -5.20634,-2.04783 -8.8797,-4.77826 -11.0143,-8.1566 -2.1346,-3.34363 -3.22793,-10.4416 -3.22793,-21.2303l0 -61.0993 -19.2056 0 0 -13.9935 19.2056 0 0 -26.3151 26.0606 -10.7887 0 37.1038 26.3036 0 0 13.9935 -26.3036 0 0 62.0885c0,5.15428 0.445431,8.42848 1.33629,9.89783 0.942926,1.46356 2.42962,2.62631 4.51794,3.51717 2.08254,0.850369 5.06172,1.2958 8.93755,1.2958 2.92133,0 6.7451,-0.237178 11.5118,-0.717318zm126.369 3.00232c-9.73007,5.66912 -19.061,9.66065 -27.9985,12.0151 -8.97804,2.3255 -18.6098,3.48246 -28.8836,3.48246 -16.9784,0 -29.9769,-2.83456 -39.1112,-8.53261 -9.08217,-5.70383 -13.6522,-13.0043 -13.6522,-21.8435 0,-5.22369 1.68917,-9.96725 5.16584,-14.2654 3.41883,-4.30391 7.93677,-7.75166 13.496,-10.3433 5.61128,-2.59738 11.8647,-4.57579 18.8643,-5.9063 5.108,-0.925571 12.8539,-1.84536 23.2261,-2.69573 21.1435,-1.74702 36.7278,-3.78906 46.7066,-6.2129 0.0983419,-2.45855 0.150405,-4.02624 0.150405,-4.67992 0,-7.33515 -2.48169,-12.5241 -7.44506,-15.4917 -6.65254,-4.10144 -16.6314,-6.10877 -29.7803,-6.10877 -12.3101,0 -21.3923,1.46356 -27.2986,4.43696 -5.86002,2.96761 -10.1755,8.22601 -13.0043,15.7694l-25.5631 -2.42962c2.33707,-7.5087 6.15505,-13.6175 11.4655,-18.2222 5.31047,-4.64521 13.0563,-8.22601 23.1277,-10.7193 10.0772,-2.49326 21.7451,-3.75435 35.0444,-3.75435 13.201,0 23.874,1.09333 32.1115,3.21058 8.24337,2.15195 14.2943,4.81297 18.2164,8.05247 3.87004,3.24528 6.5542,7.30623 8.13924,12.2522 0.844584,3.07752 1.29001,8.60203 1.29001,16.5909l0 23.9954c0,16.7586 0.549558,27.3391 1.68917,31.7413 1.09333,4.43696 3.32627,8.70615 6.60048,12.7671l-27.3506 0c-2.67837,-3.71964 -4.4601,-8.08718 -5.20634,-13.1084zm-2.18666 -40.2045c-9.5276,2.69573 -23.7756,4.94602 -42.7325,6.82609 -10.7713,1.05284 -18.4131,2.2503 -22.8327,3.5808 -4.47167,1.33051 -7.94256,3.27999 -10.3259,5.87159 -2.42962,2.56268 -3.67336,5.39724 -3.67336,8.53261 0,4.81297 2.68416,8.81028 7.94256,12.0151 5.26419,3.17587 13.0043,4.77826 23.1798,4.77826 10.0772,0 19.061,-1.49827 26.8994,-4.54108 7.84422,-3.03703 13.6522,-7.2021 17.3198,-12.4547 2.83456,-4.06094 4.22292,-10.0714 4.22292,-17.985l0 -6.62362zm167.812 14.4042l25.7135 2.31971c-2.7825,12.1828 -9.97882,21.7394 -21.589,28.6349 -11.5639,6.89551 -25.8119,10.3433 -42.6862,10.3433 -21.0972,0 -38.122,-4.74355 -50.9296,-14.2364 -12.8539,-9.48711 -19.3039,-23.1046 -19.3039,-40.8524 0,-11.4713 2.7825,-21.5022 8.28965,-30.1042 5.55921,-8.60203 13.9472,-15.0521 25.2623,-19.356 11.2688,-4.29812 23.5789,-6.45007 36.8262,-6.45007 16.776,0 30.5265,2.9329 41.1474,8.77557 10.673,5.8311 17.5222,14.0976 20.5477,24.8458l-25.459 2.69573c-2.43541,-7.13268 -6.70461,-12.4952 -12.8539,-16.1107 -6.16083,-3.58659 -13.6059,-5.39145 -22.341,-5.39145 -13.201,0 -23.9202,3.2395 -32.1578,9.75899 -8.24337,6.48478 -12.3622,16.7586 -12.3622,30.8215 0,14.2712 3.97417,24.6433 11.963,31.1339 7.94256,6.45007 18.3147,9.68957 31.1223,9.68957 10.2738,0 18.8122,-2.18088 25.7077,-6.51949 6.90129,-4.33283 11.2688,-10.9912 13.1026,-19.9981zm48.1471 38.9087l0 -146.599 26.1532 0 0 52.5956c12.2118,-9.72428 27.6514,-14.6067 46.2612,-14.6067 11.4192,0 21.346,1.56769 29.7803,4.67414 8.44005,3.07174 14.491,7.37565 18.1181,12.8365 3.6213,5.46087 5.46087,13.415 5.46087,23.793l0 67.3064 -26.211 0 0 -67.3064c0,-8.97804 -2.82878,-15.5322 -8.48633,-19.6279 -5.65755,-4.09565 -13.6985,-6.17819 -24.0706,-6.17819 -7.74587,0 -15.0405,1.39993 -21.8898,4.16507 -6.84923,2.76514 -11.7085,6.51949 -14.5893,11.263 -2.92712,4.70884 -4.37332,11.263 -4.37332,19.5874l0 58.097 -26.1532 0zm250.506 0l0 -146.599 28.2357 0 0 72.7036 105.868 -72.7036 38.2203 0 -89.4391 59.3928 93.3612 87.2062 -37.2253 0 -75.8911 -74.2019 -34.894 23.4112 0 50.7907 -28.2357 0zm200.27 0l0 -146.599 94.5066 0c19.0089,0 33.4536,1.33051 43.3283,3.95682 9.87469,2.63209 17.7652,7.27152 23.7235,13.9298 5.9063,6.68725 8.83342,14.0629 8.83342,22.1154 0,10.4127 -4.86503,19.1478 -14.6877,26.2804 -9.78213,7.13847 -24.921,11.6738 -45.3703,13.6233 7.49713,2.45855 13.1547,4.8766 17.0305,7.30044 8.23758,5.18898 16.0297,11.7085 23.4227,19.4948l37.0749 39.8979 -35.4841 0 -28.1952 -30.5149c-8.23758,-8.76979 -15.0405,-15.5322 -20.3973,-20.1717 -5.31047,-4.67414 -10.0772,-7.95413 -14.2943,-9.7937 -4.21713,-1.88007 -8.48633,-3.17587 -12.8597,-3.92789 -3.22215,-0.445431 -8.43427,-0.682609 -15.7347,-0.682609l-32.7074 0 0 65.0908 -28.1894 0zm28.1894 -81.8841l60.6538 0c12.8597,0 22.9831,-0.919786 30.2257,-2.76514 7.30044,-1.83957 12.8076,-4.77826 16.5851,-8.8045 3.76592,-4.02624 5.65177,-8.39956 5.65177,-13.1431 0,-6.93022 -3.6213,-12.6283 -10.968,-17.0999 -7.29466,-4.47167 -18.8585,-6.68725 -34.6916,-6.68725l-67.4568 0 0 48.4999zm176.848 34.7841l26.6044 -1.60818c1.24374,7.34094 4.17086,13.3456 8.78714,18.0544 4.61629,4.71463 11.7605,8.50369 21.4443,11.4019 9.678,2.90398 20.594,4.33283 32.7074,4.33283 10.7713,0 20.2469,-1.08755 28.4902,-3.27421 8.23758,-2.21559 14.3926,-5.22369 18.4131,-9.04167 4.02045,-3.85848 6.05092,-8.02355 6.05092,-12.5646 0,-4.60472 -1.93213,-8.60203 -5.85424,-12.044 -3.87004,-3.45354 -10.2738,-6.31702 -19.1593,-8.63674 -5.7559,-1.53876 -18.3668,-3.92789 -37.9658,-7.16739 -19.5585,-3.24528 -33.3032,-6.28232 -41.1474,-9.15159 -10.1755,-3.65022 -17.771,-8.22601 -22.7864,-13.6522 -4.95759,-5.42616 -7.43928,-11.5002 -7.43928,-18.2569 0,-7.37565 3.02546,-14.3059 9.12845,-20.7212 6.10299,-6.45586 15.0405,-11.3325 26.7548,-14.6761 11.7605,-3.3147 24.7648,-4.98073 39.1112,-4.98073 15.8331,0 29.7282,1.73545 41.8416,5.25262 12.0614,3.48246 21.3402,8.63674 27.8423,15.4281 6.45586,6.79138 9.97882,14.5025 10.4763,23.1104l-27.0556 1.39414c-1.4867,-9.24993 -6.39801,-16.2785 -14.786,-20.9873 -8.39377,-4.74355 -20.7502,-7.10376 -37.127,-7.10376 -17.0768,0 -29.4852,2.15195 -37.3237,6.45586 -7.79215,4.29812 -11.7143,9.48711 -11.7143,15.5265 0,5.29311 2.77671,9.62594 8.28386,13.0043 5.46087,3.41304 19.6105,6.89551 42.5358,10.4474 22.9368,3.5808 38.6657,6.68725 47.2041,9.34827 12.4084,3.9626 21.589,8.94333 27.501,14.9538 5.90052,6.03935 8.83342,13.0043 8.83342,20.8543 0,7.81529 -3.22793,15.1504 -9.73007,22.046 -6.50214,6.89551 -15.8331,12.258 -27.9927,16.1165 -12.1597,3.81798 -25.8581,5.73276 -41.0491,5.73276 -19.3039,0 -35.4841,-1.91478 -48.4884,-5.80218 -13.0563,-3.85848 -23.2781,-9.66065 -30.7232,-17.4412 -7.39879,-7.75166 -11.3209,-16.5562 -11.668,-26.3499z"/>
  </g>
 </g>
</svg>
